<svg width="42" height="9" viewBox="0 0 42 9" fill="none" xmlns="http://www.w3.org/2000/svg">
<path d="M2.664 0.775999C1.712 0.775999 1.028 1.396 0.612 2.636C0.604 2.66 0.58 2.672 0.54 2.672C0.5 2.664 0.48 2.648 0.48 2.624C0.512 2.304 0.548 1.892 0.588 1.388C0.628 0.876 0.648 0.492 0.648 0.236C0.648 0.196 0.668 0.176 0.708 0.176C0.756 0.176 0.78 0.196 0.78 0.236C0.78 0.412 1.008 0.5 1.464 0.5C2.152 0.524 2.956 0.536 3.876 0.536C4.348 0.536 4.848 0.528 5.376 0.512L6.192 0.5C6.496 0.5 6.716 0.48 6.852 0.439999C6.996 0.399999 7.088 0.319999 7.128 0.2C7.136 0.168 7.16 0.151999 7.2 0.151999C7.248 0.151999 7.272 0.168 7.272 0.2C7.248 0.44 7.22 0.824 7.188 1.352C7.164 1.88 7.152 2.304 7.152 2.624C7.152 2.648 7.132 2.66 7.092 2.66C7.052 2.66 7.028 2.648 7.02 2.624C6.9 2.008 6.676 1.548 6.348 1.244C6.02 0.931999 5.616 0.775999 5.136 0.775999C4.904 0.775999 4.748 0.827999 4.668 0.931999C4.596 1.028 4.56 1.216 4.56 1.496V7.028C4.56 7.276 4.584 7.456 4.632 7.568C4.68 7.68 4.772 7.756 4.908 7.796C5.044 7.836 5.26 7.856 5.556 7.856C5.58 7.856 5.592 7.88 5.592 7.928C5.592 7.976 5.58 8 5.556 8C5.268 8 5.04 7.996 4.872 7.988L3.876 7.976L2.904 7.988C2.736 7.996 2.504 8 2.208 8C2.184 8 2.172 7.976 2.172 7.928C2.172 7.88 2.184 7.856 2.208 7.856C2.496 7.856 2.708 7.836 2.844 7.796C2.988 7.756 3.084 7.68 3.132 7.568C3.188 7.448 3.216 7.268 3.216 7.028V1.472C3.216 1.2 3.18 1.016 3.108 0.92C3.036 0.823999 2.888 0.775999 2.664 0.775999ZM16.2069 7.856C16.2229 7.856 16.2309 7.88 16.2309 7.928C16.2309 7.976 16.2229 8 16.2069 8H14.0709C13.8949 8 13.5669 7.684 13.0869 7.052C12.6069 6.412 12.0269 5.52 11.3469 4.376C11.2829 4.384 11.1909 4.388 11.0709 4.388C10.7589 4.388 10.5389 4.384 10.4109 4.376V7.028C10.4109 7.276 10.4309 7.456 10.4709 7.568C10.5109 7.68 10.5869 7.756 10.6989 7.796C10.8189 7.836 11.0069 7.856 11.2629 7.856C11.2789 7.856 11.2869 7.88 11.2869 7.928C11.2869 7.976 11.2789 8 11.2629 8C10.9989 8 10.7909 7.996 10.6389 7.988L9.72694 7.976L8.85094 7.988C8.69094 7.996 8.47494 8 8.20294 8C8.17894 8 8.16694 7.976 8.16694 7.928C8.16694 7.88 8.17894 7.856 8.20294 7.856C8.45894 7.856 8.64294 7.836 8.75494 7.796C8.87494 7.756 8.95494 7.68 8.99494 7.568C9.04294 7.448 9.06694 7.268 9.06694 7.028V1.472C9.06694 1.232 9.04694 1.056 9.00694 0.944C8.96694 0.832 8.88694 0.755999 8.76694 0.715999C8.64694 0.668 8.46294 0.644 8.21494 0.644C8.19894 0.644 8.19094 0.62 8.19094 0.572C8.19094 0.524 8.19894 0.5 8.21494 0.5L8.85094 0.512C9.21894 0.528 9.51094 0.536 9.72694 0.536C9.99894 0.536 10.2829 0.524 10.5789 0.5C10.6829 0.492 10.8109 0.483999 10.9629 0.476C11.1229 0.468 11.2989 0.464 11.4909 0.464C12.2189 0.464 12.7829 0.6 13.1829 0.872C13.5829 1.136 13.7829 1.508 13.7829 1.988C13.7829 2.428 13.6629 2.828 13.4229 3.188C13.1829 3.54 12.8629 3.824 12.4629 4.04C13.1029 5 13.6389 5.752 14.0709 6.296C14.5029 6.84 14.8869 7.236 15.2229 7.484C15.5589 7.732 15.8869 7.856 16.2069 7.856ZM10.4109 4.04C10.6029 4.072 10.8349 4.088 11.1069 4.088C11.5709 4.088 11.9029 3.96 12.1029 3.704C12.3109 3.44 12.4149 3.02 12.4149 2.444C12.4149 1.788 12.3189 1.336 12.1269 1.088C11.9349 0.839999 11.6589 0.715999 11.2989 0.715999C10.9789 0.715999 10.7509 0.776 10.6149 0.896C10.4789 1.016 10.4109 1.216 10.4109 1.496V4.04ZM24.6938 7.856C24.7338 7.856 24.7538 7.88 24.7538 7.928C24.7538 7.976 24.7338 8 24.6938 8C24.5338 8 24.2858 7.992 23.9498 7.976C23.5978 7.96 23.3458 7.952 23.1938 7.952C22.9938 7.952 22.7498 7.96 22.4618 7.976C22.1898 7.992 21.9738 8 21.8138 8C21.7818 8 21.7658 7.976 21.7658 7.928C21.7658 7.88 21.7818 7.856 21.8138 7.856C22.0218 7.856 22.1698 7.836 22.2578 7.796C22.3538 7.748 22.4018 7.668 22.4018 7.556C22.4018 7.42 22.3218 7.192 22.1618 6.872L21.3458 5.252H18.3938L17.9258 6.296C17.8218 6.528 17.7698 6.744 17.7698 6.944C17.7698 7.232 17.8698 7.456 18.0698 7.616C18.2778 7.776 18.5538 7.856 18.8978 7.856C18.9378 7.856 18.9578 7.88 18.9578 7.928C18.9578 7.976 18.9378 8 18.8978 8C18.7538 8 18.5458 7.992 18.2738 7.976C17.9698 7.96 17.7058 7.952 17.4818 7.952C17.2658 7.952 17.0058 7.96 16.7018 7.976C16.4298 7.992 16.2098 8 16.0418 8C16.0098 8 15.9938 7.976 15.9938 7.928C15.9938 7.88 16.0098 7.856 16.0418 7.856C16.2658 7.856 16.4538 7.812 16.6058 7.724C16.7578 7.628 16.9098 7.464 17.0618 7.232C17.2138 6.992 17.3938 6.64 17.6018 6.176L20.2058 0.452C20.2218 0.428 20.2578 0.416 20.3138 0.416C20.3778 0.416 20.4138 0.428 20.4218 0.452L23.4218 6.356C23.7018 6.924 23.9338 7.316 24.1178 7.532C24.3018 7.748 24.4938 7.856 24.6938 7.856ZM18.5498 4.916H21.1658L19.7858 2.18L18.5498 4.916ZM29.1122 2.06C28.8802 2.06 28.7002 1.996 28.5722 1.868C28.4442 1.74 28.3802 1.56 28.3802 1.328C28.3802 1.12 28.4442 0.956 28.5722 0.836C28.7082 0.708 28.8882 0.644 29.1122 0.644C29.3362 0.644 29.5082 0.704 29.6282 0.823999C29.7482 0.944 29.8082 1.112 29.8082 1.328C29.8082 1.56 29.7482 1.74 29.6282 1.868C29.5082 1.996 29.3362 2.06 29.1122 2.06ZM27.9602 8C27.9362 8 27.9242 7.976 27.9242 7.928C27.9242 7.88 27.9362 7.856 27.9602 7.856C28.2082 7.856 28.3762 7.8 28.4642 7.688C28.5522 7.568 28.5962 7.348 28.5962 7.028V4.88C28.5962 4.608 28.5682 4.412 28.5122 4.292C28.4562 4.172 28.3642 4.112 28.2362 4.112C28.1322 4.112 27.9842 4.156 27.7922 4.244H27.7802C27.7482 4.244 27.7242 4.224 27.7082 4.184C27.6922 4.136 27.6962 4.108 27.7202 4.1L29.5322 3.26L29.5682 3.248C29.6082 3.248 29.6482 3.268 29.6882 3.308C29.7282 3.348 29.7482 3.384 29.7482 3.416V3.68C29.7322 4 29.7242 4.392 29.7242 4.856V7.028C29.7242 7.348 29.7682 7.568 29.8562 7.688C29.9522 7.8 30.1242 7.856 30.3722 7.856C30.3962 7.856 30.4082 7.88 30.4082 7.928C30.4082 7.976 30.3962 8 30.3722 8C30.1642 8 30.0002 7.996 29.8802 7.988L29.1602 7.976L28.4522 7.988C28.3322 7.996 28.1682 8 27.9602 8ZM36.7525 7.856C36.7765 7.856 36.7885 7.88 36.7885 7.928C36.7885 7.976 36.7765 8 36.7525 8C36.5445 8 36.3805 7.996 36.2605 7.988L35.5405 7.976L34.8445 7.988C34.7165 7.996 34.5485 8 34.3405 8C34.3165 8 34.3045 7.976 34.3045 7.928C34.3045 7.88 34.3165 7.856 34.3405 7.856C34.5885 7.856 34.7565 7.8 34.8445 7.688C34.9325 7.568 34.9765 7.348 34.9765 7.028V5.3C34.9765 4.868 34.8965 4.548 34.7365 4.34C34.5845 4.132 34.3405 4.028 34.0045 4.028C33.8125 4.028 33.6125 4.068 33.4045 4.148C33.2045 4.228 33.0285 4.336 32.8765 4.472V7.028C32.8765 7.348 32.9205 7.568 33.0085 7.688C33.1045 7.8 33.2765 7.856 33.5245 7.856C33.5485 7.856 33.5605 7.88 33.5605 7.928C33.5605 7.976 33.5485 8 33.5245 8C33.3165 8 33.1525 7.996 33.0325 7.988L32.3125 7.976L31.6045 7.988C31.4845 7.996 31.3205 8 31.1125 8C31.0885 8 31.0765 7.976 31.0765 7.928C31.0765 7.88 31.0885 7.856 31.1125 7.856C31.3605 7.856 31.5285 7.8 31.6165 7.688C31.7045 7.568 31.7485 7.348 31.7485 7.028V4.772C31.7485 4.524 31.7165 4.344 31.6525 4.232C31.5965 4.112 31.5045 4.052 31.3765 4.052C31.2405 4.052 31.0485 4.108 30.8005 4.22H30.7765C30.7525 4.22 30.7325 4.2 30.7165 4.16C30.7085 4.12 30.7125 4.096 30.7285 4.088L32.3965 3.272C32.4445 3.256 32.4725 3.248 32.4805 3.248C32.5685 3.248 32.6525 3.336 32.7325 3.512C32.8125 3.68 32.8605 3.912 32.8765 4.208C33.4285 3.552 34.0365 3.224 34.7005 3.224C35.1325 3.224 35.4725 3.364 35.7205 3.644C35.9765 3.916 36.1045 4.276 36.1045 4.724V7.028C36.1045 7.348 36.1485 7.568 36.2365 7.688C36.3325 7.8 36.5045 7.856 36.7525 7.856ZM39.7689 8.144C39.2409 8.144 38.7929 8.032 38.4249 7.808C38.0649 7.576 37.7929 7.28 37.6089 6.92C37.4329 6.552 37.3449 6.168 37.3449 5.768C37.3449 5.264 37.4849 4.824 37.7649 4.448C38.0449 4.064 38.4009 3.772 38.8329 3.572C39.2729 3.364 39.7209 3.26 40.1769 3.26C40.5609 3.26 40.9049 3.34 41.2089 3.5C41.5209 3.66 41.6769 3.88 41.6769 4.16C41.6769 4.312 41.6169 4.444 41.4969 4.556C41.3849 4.66 41.2249 4.712 41.0169 4.712C40.8249 4.712 40.6729 4.664 40.5609 4.568C40.4489 4.464 40.3569 4.308 40.2849 4.1C40.2129 3.876 40.1409 3.724 40.0689 3.644C40.0049 3.556 39.8849 3.512 39.7089 3.512C39.3649 3.512 39.0889 3.684 38.8809 4.028C38.6809 4.364 38.5809 4.812 38.5809 5.372C38.5809 6.036 38.7289 6.568 39.0249 6.968C39.3209 7.36 39.7929 7.556 40.4409 7.556C40.6569 7.556 40.8409 7.532 40.9929 7.484C41.1529 7.436 41.3529 7.356 41.5929 7.244H41.6049C41.6289 7.244 41.6489 7.256 41.6649 7.28C41.6889 7.304 41.6929 7.324 41.6769 7.34C41.3809 7.612 41.0849 7.816 40.7889 7.952C40.4929 8.08 40.1529 8.144 39.7689 8.144Z" fill="black"/>
</svg>
