<svg width="42" height="9" fill="none" xmlns="http://www.w3.org/2000/svg"><path d="M2.664.776c-.952 0-1.636.62-2.052 1.86-.008.024-.032.036-.072.036-.04-.008-.06-.024-.06-.048.032-.32.068-.732.108-1.236.04-.512.06-.896.06-1.152 0-.04.02-.06.06-.06.048 0 .072.02.072.06 0 .176.228.264.684.264.688.024 1.492.036 2.412.036.472 0 .972-.008 1.5-.024L6.192.5c.304 0 .524-.02.66-.06.144-.04.236-.12.276-.24.008-.032.032-.048.072-.048.048 0 .072.016.072.048-.024.24-.052.624-.084 1.152-.024.528-.036.952-.036 1.272 0 .024-.02.036-.06.036-.04 0-.064-.012-.072-.036-.12-.616-.344-1.076-.672-1.38C6.02.932 5.616.776 5.136.776c-.232 0-.388.052-.468.156-.072.096-.108.284-.108.564v5.532c0 .248.024.428.072.54.048.112.14.188.276.228.136.04.352.06.648.06.024 0 .036.024.036.072 0 .048-.012.072-.036.072-.288 0-.516-.004-.684-.012l-.996-.012-.972.012c-.168.008-.4.012-.696.012-.024 0-.036-.024-.036-.072 0-.048.012-.072.036-.072.288 0 .5-.02.636-.06.144-.04.24-.116.288-.228.056-.12.084-.3.084-.54V1.472c0-.272-.036-.456-.108-.552-.072-.096-.22-.144-.444-.144zm13.543 7.08c.016 0 .024.024.024.072 0 .048-.008.072-.024.072H14.07c-.176 0-.504-.316-.984-.948-.48-.64-1.06-1.532-1.74-2.676a2.387 2.387 0 01-.276.012c-.312 0-.532-.004-.66-.012v2.652c0 .248.02.428.06.54a.36.36 0 00.228.228c.12.04.308.06.564.06.016 0 .024.024.024.072 0 .048-.008.072-.024.072-.264 0-.472-.004-.624-.012l-.912-.012-.876.012c-.16.008-.376.012-.648.012-.024 0-.036-.024-.036-.072 0-.048.012-.072.036-.072.256 0 .44-.02.552-.06a.36.36 0 00.24-.228c.048-.12.072-.3.072-.54V1.472c0-.24-.02-.416-.06-.528a.36.36 0 00-.24-.228c-.12-.048-.304-.072-.552-.072-.016 0-.024-.024-.024-.072 0-.048.008-.072.024-.072l.636.012c.368.016.66.024.876.024.272 0 .556-.012.852-.036a10.636 10.636 0 01.912-.036c.728 0 1.292.136 1.692.408.4.264.6.636.6 1.116 0 .44-.12.84-.36 1.2a2.68 2.68 0 01-.96.852c.64.96 1.176 1.712 1.608 2.256.432.544.816.94 1.152 1.188.336.248.664.372.984.372zM10.41 4.04c.192.032.424.048.696.048.464 0 .796-.128.996-.384.208-.264.312-.684.312-1.26 0-.656-.096-1.108-.288-1.356-.192-.248-.468-.372-.828-.372-.32 0-.548.06-.684.18s-.204.32-.204.6V4.04zm14.283 3.816c.04 0 .06.024.06.072 0 .048-.02.072-.06.072-.16 0-.408-.008-.744-.024a18.992 18.992 0 00-.756-.024c-.2 0-.444.008-.732.024-.272.016-.488.024-.648.024-.032 0-.048-.024-.048-.072 0-.048.016-.072.048-.072.208 0 .356-.02.444-.06a.248.248 0 00.144-.24c0-.136-.08-.364-.24-.684l-.816-1.62h-2.952l-.468 1.044a1.593 1.593 0 00-.156.648c0 .288.1.512.3.672.208.16.484.24.828.24.04 0 .06.024.06.072 0 .048-.02.072-.06.072-.144 0-.352-.008-.624-.024a15.336 15.336 0 00-.792-.024c-.216 0-.476.008-.78.024-.272.016-.492.024-.66.024-.032 0-.048-.024-.048-.072 0-.048.016-.072.048-.072.224 0 .412-.044.564-.132.152-.096.304-.26.456-.492.152-.24.332-.592.54-1.056L20.206.452c.016-.024.052-.036.108-.036.064 0 .1.012.108.036l3 5.904c.28.568.512.96.696 1.176.184.216.376.324.576.324zm-6.144-2.94h2.616l-1.38-2.736-1.236 2.736zM29.112 2.06c-.232 0-.412-.064-.54-.192-.128-.128-.192-.308-.192-.54 0-.208.064-.372.192-.492.136-.128.316-.192.54-.192.224 0 .396.06.516.18s.18.288.18.504c0 .232-.06.412-.18.54-.12.128-.292.192-.516.192zM27.96 8c-.024 0-.036-.024-.036-.072 0-.048.012-.072.036-.072.248 0 .416-.056.504-.168.088-.12.132-.34.132-.66V4.88c0-.272-.028-.468-.084-.588a.285.285 0 00-.276-.18c-.104 0-.252.044-.444.132h-.012c-.032 0-.056-.02-.072-.06-.016-.048-.012-.076.012-.084l1.812-.84.036-.012c.04 0 .08.02.12.06.04.04.06.076.06.108v.264c-.016.32-.024.712-.024 1.176v2.172c0 .32.044.54.132.66.096.112.268.168.516.168.024 0 .036.024.036.072 0 .048-.012.072-.036.072a7.82 7.82 0 01-.492-.012l-.72-.012-.708.012A7.82 7.82 0 0127.96 8zm8.792-.144c.024 0 .036.024.036.072 0 .048-.011.072-.035.072a7.82 7.82 0 01-.492-.012l-.72-.012-.697.012A8.437 8.437 0 0134.34 8c-.024 0-.036-.024-.036-.072 0-.048.012-.072.036-.072.248 0 .416-.056.504-.168.088-.12.133-.34.133-.66V5.3c0-.432-.08-.752-.24-.96-.153-.208-.397-.312-.733-.312a1.77 1.77 0 00-1.128.444v2.556c0 .32.044.54.133.66.096.112.267.168.516.168.023 0 .035.024.035.072 0 .048-.012.072-.035.072a7.82 7.82 0 01-.492-.012l-.72-.012-.709.012a7.82 7.82 0 01-.491.012c-.024 0-.037-.024-.037-.072 0-.048.012-.072.037-.072.247 0 .416-.056.503-.168.088-.12.133-.34.133-.66V4.772c0-.248-.032-.428-.096-.54a.285.285 0 00-.276-.18c-.136 0-.328.056-.576.168h-.024c-.024 0-.044-.02-.06-.06-.008-.04-.005-.064.012-.072l1.668-.816a.502.502 0 01.084-.024c.087 0 .172.088.252.264.08.168.128.4.144.696.551-.656 1.16-.984 1.823-.984.432 0 .772.14 1.02.42.257.272.385.632.385 1.08v2.304c0 .32.044.54.132.66.096.112.267.168.515.168zm3.017.288c-.528 0-.976-.112-1.344-.336a2.282 2.282 0 01-.816-.888 2.639 2.639 0 01-.264-1.152c0-.504.14-.944.42-1.32a2.71 2.71 0 011.068-.876c.44-.208.888-.312 1.344-.312.384 0 .728.08 1.032.24.312.16.468.38.468.66 0 .152-.06.284-.18.396-.112.104-.272.156-.48.156-.192 0-.344-.048-.456-.144a1.134 1.134 0 01-.276-.468c-.072-.224-.144-.376-.216-.456-.064-.088-.184-.132-.36-.132-.344 0-.62.172-.828.516-.2.336-.3.784-.3 1.344 0 .664.148 1.196.444 1.596.296.392.768.588 1.416.588.216 0 .4-.024.552-.072.16-.048.36-.128.6-.24h.012c.024 0 .044.012.06.036.024.024.028.044.012.06a3.473 3.473 0 01-.888.612 2.55 2.55 0 01-1.02.192z" fill="#000"/></svg>